<?xml version="1.0" encoding="UTF-8" standalone="no"?>
<!DOCTYPE svg PUBLIC "-//W3C//DTD SVG 1.1//EN" "http://www.w3.org/Graphics/SVG/1.1/DTD/svg11.dtd">
<svg width="100%" height="100%" viewBox="0 0 183 48" version="1.1" xmlns="http://www.w3.org/2000/svg" xmlns:xlink="http://www.w3.org/1999/xlink" xml:space="preserve" xmlns:serif="http://www.serif.com/" style="fill-rule:evenodd;clip-rule:evenodd;stroke-linejoin:round;stroke-miterlimit:1.41421;">
    <g transform="matrix(1,0,0,1,36,12)">
        <g transform="matrix(1.6789,0,0,2,-36,-12)">
            <rect x="0" y="0" width="109" height="24" style="fill:rgb(1,113,154);fill-opacity:0.2;"/>
        </g>
        <g transform="matrix(1,0,0,1,-36,-12)">
            <rect x="0" y="0" width="183" height="48" style="fill:rgb(64,138,248);"/>
        </g>
        <g transform="matrix(1.35959,0,0,1.05535,-25.7673,-1.06906)">
            <g transform="matrix(0.762298,0,0,1,-0.237702,0)">
                <text x="-1px" y="24.001px" style="font-family:'OpenSans-SemiBold', 'Open Sans', sans-serif;font-weight:600;font-size:33.507px;fill:rgb(246,249,252);">f<tspan x="9.615px 28.54px " y="24.001px 24.001px ">os</tspan></text>
            </g>
            <g transform="matrix(0.762298,0,0,1,7.79138,0)">
                <text x="32.778px" y="24.001px" style="font-family:'OpenSans-SemiBold', 'Open Sans', sans-serif;font-weight:600;font-size:33.507px;fill:rgb(246,249,252);">t<tspan x="44.273px 61.903px 74.674px 81.703px 101.542px 119.663px " y="24.001px 24.001px 24.001px 24.001px 24.001px 24.001px ">er ﬂow</tspan></text>
            </g>
        </g>
    </g>
</svg>
